<svg version="1.1" id="Uploaded to svgrepo.com" xmlns="http://www.w3.org/2000/svg" xmlns:xlink="http://www.w3.org/1999/xlink" x="0px" y="0px"
	width="32px" height="32px" viewBox="0 0 32 32" style="enable-background:new 0 0 32 32;" xml:space="preserve">
<style type="text/css">
	.linesandangles_een{fill:#ffffff;}
</style>
<path class="linesandangles_een" d="M25,13c0,3.348-2.208,7.455-4.286,9.618c-0.527,0.549-0.902,1.188-1.299,1.863
	C18.447,26.131,17.35,28,14,28c-3.616,0-5.077-2.068-6.043-3.437c-0.238-0.337-0.464-0.657-0.664-0.856l1.414-1.414
	C9.028,22.614,9.301,23,9.59,23.41C10.49,24.683,11.42,26,14,26c2.205,0,2.796-1.007,3.69-2.531
	c0.417-0.711,0.891-1.517,1.581-2.236C21.064,19.366,23,15.687,23,13c0-3.86-3.14-7-7-7s-7,3.14-7,7H7c0-4.962,4.038-9,9-9
	S25,8.038,25,13z M12,17h-1v2h1c1.206,0,3-0.799,3-3c0-1.639-0.994-2.5-2-2.833v-0.161C13.006,12.503,13.177,10,16,10
	s2.994,2.503,3,3.005L20,13h1c0-1.729-1.045-5-5-5s-5,3.271-5,5l0.014,1.975L11.988,15C12.45,15.012,13,15.195,13,16
	S12.45,16.988,12,17z"/>
</svg>